<?xml version="1.0" encoding="utf-8"?>
<!-- Generated by IcoMoon.io -->
<!DOCTYPE svg PUBLIC "-//W3C//DTD SVG 1.1//EN" "http://www.w3.org/Graphics/SVG/1.1/DTD/svg11.dtd">
<svg version="1.1" xmlns="http://www.w3.org/2000/svg" xmlns:xlink="http://www.w3.org/1999/xlink" width="11" height="12" viewBox="0 0 11 12">
<path d="M8.571 9c0-0.234-0.194-0.429-0.429-0.429s-0.429 0.194-0.429 0.429 0.194 0.429 0.429 0.429 0.429-0.194 0.429-0.429zM10.286 9c0-0.234-0.194-0.429-0.429-0.429s-0.429 0.194-0.429 0.429 0.194 0.429 0.429 0.429 0.429-0.194 0.429-0.429zM11.143 7.5v2.143c0 0.355-0.288 0.643-0.643 0.643h-9.857c-0.355 0-0.643-0.288-0.643-0.643v-2.143c0-0.355 0.288-0.643 0.643-0.643h3.114l0.904 0.911c0.248 0.241 0.569 0.375 0.911 0.375s0.663-0.134 0.911-0.375l0.911-0.911h3.107c0.355 0 0.643 0.288 0.643 0.643zM8.967 3.69c0.067 0.161 0.033 0.348-0.094 0.469l-3 3c-0.080 0.087-0.194 0.127-0.301 0.127s-0.221-0.040-0.301-0.127l-3-3c-0.127-0.121-0.161-0.308-0.094-0.469 0.067-0.154 0.221-0.261 0.395-0.261h1.714v-3c0-0.234 0.194-0.429 0.429-0.429h1.714c0.234 0 0.429 0.194 0.429 0.429v3h1.714c0.174 0 0.328 0.107 0.395 0.261z"></path>
</svg>
