<?xml version="1.0" encoding="utf-8"?>
<!-- Generated by IcoMoon.io -->
<!DOCTYPE svg PUBLIC "-//W3C//DTD SVG 1.1//EN" "http://www.w3.org/Graphics/SVG/1.1/DTD/svg11.dtd">
<svg version="1.1" xmlns="http://www.w3.org/2000/svg" xmlns:xlink="http://www.w3.org/1999/xlink" width="150" height="150" viewBox="0 0 10 12">
<path fill="#b01b01" d="M10.286 5.571v0.857c0 2.732-2.163 4.714-5.143 4.714s-5.143-1.982-5.143-4.714v-0.857c0-0.234 0.194-0.429 0.429-0.429h2.571c0.234 0 0.429 0.194 0.429 0.429v0.857c0 1.225 1.426 1.286 1.714 1.286s1.714-0.060 1.714-1.286v-0.857c0-0.234 0.194-0.429 0.429-0.429h2.571c0.234 0 0.429 0.194 0.429 0.429zM3.429 1.286v2.571c0 0.234-0.194 0.429-0.429 0.429h-2.571c-0.234 0-0.429-0.194-0.429-0.429v-2.571c0-0.234 0.194-0.429 0.429-0.429h2.571c0.234 0 0.429 0.194 0.429 0.429zM10.286 1.286v2.571c0 0.234-0.194 0.429-0.429 0.429h-2.571c-0.234 0-0.429-0.194-0.429-0.429v-2.571c0-0.234 0.194-0.429 0.429-0.429h2.571c0.234 0 0.429 0.194 0.429 0.429z"></path>
</svg>
